<?xml version="1.0" encoding="UTF-8"?>
<svg xmlns="http://www.w3.org/2000/svg" version="1.1" xmlns:xlink="http://www.w3.org/1999/xlink" viewBox="0 0 249.4 79.2">
  <defs>
    <style>
      .cls-1 {
        fill: url(#linear-gradient);
      }
    </style>
    <linearGradient id="linear-gradient" x1="0" y1="805.9" x2="246.6" y2="805.9" gradientTransform="translate(0 -766.3)" gradientUnits="userSpaceOnUse">
      <stop offset="0" stop-color="#24356f"/>
      <stop offset=".6" stop-color="#179bd7"/>
      <stop offset="1" stop-color="#179bd7"/>
    </linearGradient>
  </defs>
  <!-- Generator: Adobe Illustrator 28.7.5, SVG Export Plug-In . SVG Version: 1.2.0 Build 176)  -->
  <g>
    <g id="Layer_2">
      <path class="cls-1" d="M11.3,79.1c-6.6,0-11.3-4.8-11.3-11.4V10.8C0,4.5,4.5,0,10.8,0h30.8C47.7,0,52.2,4.5,52.2,10.8s-4.5,10.9-10.8,10.9h-18.7v7.9h14.1c6.2,0,10.8,4.5,10.8,10.8s-4.5,10.9-10.8,10.9h-14.1v16.6c0,6.7-4.7,11.4-11.4,11.4h0s0,0,0,0ZM10.8,3.8c-4.1,0-6.9,2.8-6.9,6.9v56.9c0,4.5,3,7.6,7.5,7.6s7.6-3.1,7.6-7.6v-20.4h18c4.1,0,6.9-2.8,6.9-7s-2.8-6.9-6.9-6.9h-18v-15.6h22.6c4.1,0,6.9-2.8,6.9-7s-2.8-6.9-6.9-6.9H10.8ZM73.1,79.2c-6.8,0-11.5-4.7-11.5-11.5V11.6c0-6.7,4.8-11.5,11.4-11.5s11.5,4.8,11.5,11.5v56.1c0,6.7-4.8,11.5-11.4,11.5,0,0,0,0,0,0ZM73,3.9c-4.5,0-7.5,3.1-7.5,7.7v56c0,4.6,3.1,7.7,7.7,7.7s7.5-3.1,7.5-7.7V11.6c0-4.6-3.1-7.7-7.7-7.7,0,0,0,0,0,0ZM162.7,79.1c-6.8,0-11.5-4.7-11.5-11.5V11.6c0-6.7,4.8-11.5,11.4-11.5s11.5,4.8,11.5,11.5v56c0,6.7-4.8,11.5-11.4,11.5h0ZM162.6,3.8c-4.5,0-7.5,3.1-7.5,7.7v56c0,4.6,3.1,7.7,7.7,7.7s7.5-3.1,7.5-7.7V11.6c0-4.6-3.1-7.7-7.7-7.7h0ZM214.8,78.9c-6.7,0-11.5-4.8-11.5-11.5V22.2h-9.4c-6.2,0-10.8-4.6-10.8-10.9S187.7.4,193.9.4h41.8c6.3,0,10.8,4.6,10.8,10.9s-4.6,10.8-10.8,10.8h-9.5v45.2c0,6.7-4.8,11.5-11.4,11.5h0ZM193.9,4.3c-4.1,0-7,2.8-7,7s2.8,7.1,7,7.1h13.3v49.1c0,4.6,3.1,7.7,7.7,7.7s7.5-3.1,7.5-7.7V18.4h13.4c4.1,0,7-2.9,7-7s-2.8-7.1-7-7.1h-41.8ZM163.7,12.4h-1.9v54.5h1.9V12.4ZM162.7,9c-1.3,0-2.4,1.1-2.4,2.4s1.1,2.4,2.4,2.4,2.4-1.1,2.4-2.4-1.1-2.4-2.4-2.4ZM162.7,65.2c-1.3,0-2.4,1.1-2.4,2.4s1.1,2.4,2.4,2.4,2.4-1.1,2.4-2.4-1.1-2.4-2.4-2.4ZM215.8,12.5h-1.9v54.5h1.9V12.5ZM237,11.6c0-.5-.4-1-1-1h-41.7c-.5,0-1,.4-1,1s.4,1,1,1h41.7c.5,0,1-.4,1-1ZM193.5,9.2c-1.3,0-2.4,1.1-2.4,2.4s1.1,2.4,2.4,2.4,2.4-1.1,2.4-2.4-1.1-2.4-2.4-2.4ZM214.8,65.4c-1.3,0-2.4,1.1-2.4,2.4s1.1,2.4,2.4,2.4,2.4-1.1,2.4-2.4-1.1-2.4-2.4-2.4ZM236.2,9.2c-1.3,0-2.4,1.1-2.4,2.4s1.1,2.4,2.4,2.4,2.4-1.1,2.4-2.4-1.1-2.4-2.4-2.4ZM214.8,9.2c-1.3,0-2.4,1.1-2.4,2.4s1.1,2.4,2.4,2.4,2.4-1.1,2.4-2.4-1.1-2.4-2.4-2.4ZM105.2,4c2.1,0,4.1.8,5.7,2.5l25.5,28c2.6,2.9,2.6,7.4,0,10.3l-25.5,28c-1.5,1.6-3.6,2.5-5.7,2.5s-3.7-.6-5.1-2c-3.1-2.8-3.3-7.7-.5-10.8l20.8-22.8-20.8-22.9c-2.8-3.1-2.6-7.9.5-10.8,1.5-1.3,3.3-2,5.1-2M105.2.1c-2.9,0-5.6,1.1-7.7,3-4.7,4.3-5,11.6-.8,16.2l18.5,20.2-18.5,20.2c-4.3,4.7-3.9,12,.8,16.2,2.1,1.9,4.9,3,7.7,3s6.3-1.4,8.5-3.8l25.5-28c4-4.4,4-11.1,0-15.5L113.8,3.8C111.6,1.4,108.5,0,105.2,0h0Z"/>
    </g>
  </g>
</svg>